<?xml version="1.0" encoding="UTF-8"?>
<!DOCTYPE svg PUBLIC "-//W3C//DTD SVG 1.1//EN" "http://www.w3.org/Graphics/SVG/1.1/DTD/svg11.dtd">
<!-- Creator: CorelDRAW -->
<svg xmlns="http://www.w3.org/2000/svg" xml:space="preserve" width="170.089mm" height="116.206mm" version="1.1" style="shape-rendering:geometricPrecision; text-rendering:geometricPrecision; image-rendering:optimizeQuality; fill-rule:evenodd; clip-rule:evenodd"
viewBox="0 0 10972.93 7496.78"
 xmlns:xlink="http://www.w3.org/1999/xlink"
 xmlns:xodm="http://www.corel.com/coreldraw/odm/2003">
 <defs>
  <style type="text/css">
   <![CDATA[
    .fil2 {fill:#D2AE6D}
    .fil3 {fill:#2E529F}
    .fil0 {fill:#606062;fill-rule:nonzero}
    .fil1 {fill:#2E529F;fill-rule:nonzero}
   ]]>
  </style>
 </defs>
 <g id="Camada_x0020_1">
  <metadata id="CorelCorpID_0Corel-Layer"/>
  <path class="fil0" d="M1028.18 7370.77l-110.78 0 -98.63 -185.4 -60.16 0 0 185.4 -103.8 0 0 -542.5 198.82 0c48.29,0 89.47,17.04 123.56,51.13 33.95,33.95 51,75.27 51,123.68l0 5.29c0,73.33 -35.38,127.43 -106.12,162.29l106.12 200.11zm-184.62 -286.1c20.53,0 38.48,-7.88 53.58,-23.5 15.11,-15.1 22.59,-33.7 22.59,-55.64 0,-21.43 -7.48,-39.38 -22.59,-53.84 -14.84,-14.59 -32.79,-21.95 -53.58,-21.95l-84.95 0 0 154.93 84.95 0zm824.71 -256.41l0 100.7 -224.64 0 0 120.84 224.64 0 0 98.38 -224.64 0 0 121.61 224.64 0 0 100.7 -325.35 0 0 -542.24 325.35 0zm447.73 542.37l-103.8 0 0 -542.37 198.69 0c48.16,0 89.47,17.04 123.68,51.13 35.11,34.21 52.67,75.4 52.67,123.3l0 7.1c0,47.89 -17.56,89.08 -52.67,123.29 -34.47,33.83 -75.78,50.74 -123.68,50.74l-94.89 0 0 186.82zm84.69 -287.51c21.69,0 39.64,-7.23 53.71,-21.7 14.46,-14.07 21.56,-32.15 21.56,-53.84 0,-21.82 -7.1,-40.41 -21.56,-55.9 -14.33,-15.1 -32.28,-22.72 -53.71,-22.72l-84.69 0 0 154.15 84.69 0zm888.24 287.64l-110.78 0 -98.63 -185.4 -60.16 0 0 185.4 -103.8 0 0 -542.5 198.82 0c48.29,0 89.47,17.04 123.56,51.13 33.95,33.95 51,75.27 51,123.68l0 5.29c0,73.33 -35.38,127.43 -106.12,162.29l106.12 200.11zm-184.62 -286.1c20.53,0 38.48,-7.88 53.58,-23.5 15.11,-15.1 22.59,-33.7 22.59,-55.64 0,-21.43 -7.48,-39.38 -22.59,-53.84 -14.84,-14.59 -32.79,-21.95 -53.58,-21.95l-84.95 0 0 154.93 84.95 0zm824.71 -256.41l0 100.7 -224.64 0 0 120.84 224.64 0 0 98.38 -224.64 0 0 121.61 224.64 0 0 100.7 -325.35 0 0 -542.24 325.35 0zm509.58 542.24c-72.56,0 -127.81,-37.7 -165.64,-112.97l84.31 -50.35c24.79,46.35 52.8,69.59 84.05,69.59 16.4,0 30.73,-4.77 43.12,-14.33 11.1,-10.33 16.66,-21.56 16.66,-33.7 0,-11.88 -4.01,-23.88 -11.75,-35.89 -5.04,-5.81 -12.4,-13.04 -21.95,-21.82 -9.55,-8.65 -21.56,-19.11 -35.9,-31.11 -27.5,-22.98 -50.35,-43.25 -68.29,-60.81 -18.08,-17.43 -31.24,-32.4 -39.51,-44.8 -17.69,-25.18 -26.47,-49.84 -26.47,-74.11 0,-36.28 13.56,-67.4 40.8,-93.34 28.28,-25.7 61.71,-38.6 100.58,-38.6 26.72,0 51.64,6.46 74.49,19.24 11.88,5.81 24.14,14.2 36.79,25.04 12.53,10.84 25.95,24.02 40.02,39.64l-74.49 64.68c-24.91,-34.99 -50.61,-52.55 -76.82,-52.55 -14.59,0 -24.92,3.1 -30.99,9.43 -8.14,6.33 -12.13,14.33 -12.13,24.28 0,7.48 2.45,15.36 7.23,23.37 4.78,5.03 13.17,12.91 25.18,23.62 11.88,10.72 27.62,24.53 47.12,41.44 22.59,18.85 39.89,33.95 51.77,44.93 7.75,7.1 13.56,12.13 17.43,15.24 35.24,33.95 52.93,73.07 52.93,117.23 0,43.25 -14.59,78.63 -43.51,105.87 -28.79,27.24 -67.14,40.8 -115.03,40.8zm813.48 -542.24l0 100.7 -224.64 0 0 120.84 224.64 0 0 98.38 -224.64 0 0 121.61 224.64 0 0 100.7 -325.35 0 0 -542.24 325.35 0zm777.72 0l0 542.37 -98.63 0 -234.45 -355.56 0 355.56 -100.7 0 0 -542.37 98.38 0 231.62 358.14 0 -358.14 103.79 0zm729.96 0l0 101.48 -49.06 0 -99.16 0 0 441.02 -106.12 0 0 -441.02 -96.44 0 -49.19 0 0 -101.48 399.97 0zm542.37 0l2.58 7.49 -52.93 136.34 -73.33 186.17 146.41 0 -35.24 -88.18 52.93 -136.46 169.13 436.51 -108.97 0 -40.02 -111.16 -222.07 0 -45.44 111.16 -105.87 0 209.15 -541.86 103.67 0zm537.2 268.54c0,-51.64 11.36,-98.38 33.95,-139.95 12.78,-21.3 28.15,-40.28 45.97,-57.06 17.81,-16.79 37.44,-30.99 58.87,-42.6 21.43,-11.49 44.15,-20.4 67.91,-26.6 23.88,-6.19 48.15,-9.29 72.82,-9.29 22.21,0 43.89,2.45 65.33,7.23 21.3,4.78 41.7,11.62 61.46,20.79 19.62,9.04 38.21,20.14 55.9,33.31 17.69,13.04 33.7,27.89 48.03,44.55l-71.01 66.23c-46.48,-50.74 -100.58,-76.04 -162.29,-76.04 -49.18,0 -90.89,17.17 -125.23,51.51 -36.02,36.02 -54.09,78.62 -54.09,127.81 0,25.95 4.65,50.09 13.95,72.3 9.43,22.21 22.21,41.44 38.6,57.71 16.4,16.27 35.64,28.92 57.71,37.96 22.08,9.17 45.96,13.68 71.65,13.68 16.91,0 32.53,-1.81 46.86,-5.29 14.46,-3.49 28.02,-8.52 40.93,-15.11 12.78,-6.58 25.17,-14.59 36.93,-23.88 11.62,-9.3 23.37,-19.88 34.99,-31.76l68.82 71.14c-15.88,15.1 -32.02,28.91 -48.29,41.44 -16.27,12.39 -33.18,23.11 -50.87,31.89 -17.69,8.91 -36.28,15.62 -55.9,20.4 -19.75,4.77 -40.93,7.23 -63.65,7.23 11.62,4.52 20.66,11.1 26.85,19.62 9.94,8.78 14.85,19.37 14.85,31.76 0,19.62 -8.26,36.8 -24.66,51.38 -16.13,13.04 -39.11,19.62 -68.81,19.62 -21.95,0 -48.03,-5.68 -78.24,-17.04l12.01 -44.41c16.92,4.78 34.22,7.23 51.9,7.23 12.26,0 21.3,-2.32 26.86,-7.1 6.46,-6.06 9.81,-11.75 9.81,-17.3 0,-6.97 -2.58,-11.88 -7.62,-14.59 -5.29,-4.77 -12.52,-7.23 -21.95,-7.23l-19.62 2.72 7.62 -29.31c-55.26,-9.81 -102,-34.47 -140.34,-73.85 -52.03,-51.9 -77.98,-118.26 -77.98,-199.08zm1130.05 -294.88c-14.33,0 -32.4,-3.23 -54.09,-9.68 -16.66,-4.91 -27.37,-7.36 -32.15,-7.36 -4.78,-1.55 -12.01,-2.32 -21.95,-2.32 -22.34,0 -43.64,6.45 -63.78,19.37l-39.37 -61.58c30.47,-22.98 61.58,-34.47 93.34,-34.47 12.65,0 33.05,4.13 61.32,12.26 19.11,4.77 33.83,7.1 44.16,7.1 22.21,0 43.51,-5.68 63.91,-17.04l37.05 54.22c-29.7,26.33 -59.26,39.51 -88.43,39.51zm-63.26 474.72c22.98,0 44.15,-4.26 63.65,-12.78 19.62,-8.65 37.7,-21.17 54.35,-37.83 33.57,-32.79 50.22,-74.49 50.22,-125.23 0,-48.67 -16.66,-90.5 -50.22,-125.62 -32.28,-33.7 -72.56,-50.61 -120.71,-50.61 -48.68,0 -88.7,16.92 -120.2,50.61 -32.28,32.53 -48.42,74.49 -48.42,125.62 0,57.46 20.92,103.29 62.75,137.37 31.5,25.7 67.65,38.48 108.58,38.48zm0 93.86c-76.95,0 -141.37,-26.47 -193.27,-79.4 -51.51,-55 -77.2,-118.39 -77.2,-190.3 0,-50.87 12.13,-96.83 36.28,-137.63 23.24,-41.44 56.04,-74.24 98.38,-98.76 42.09,-24.15 87.4,-36.28 135.82,-36.28 72.04,0 134.66,26.47 187.59,79.4 53.45,53.97 80.17,118.39 80.17,193.27 0,76.69 -25.82,140.86 -77.59,192.5 -52.16,51.51 -115.55,77.2 -190.17,77.2zm943.88 -542.24l0 100.7 -224.64 0 0 120.84 224.64 0 0 98.38 -224.64 0 0 121.61 224.64 0 0 100.7 -325.35 0 0 -542.24 325.35 0zm509.58 542.24c-72.56,0 -127.81,-37.7 -165.64,-112.97l84.31 -50.35c24.79,46.35 52.8,69.59 84.05,69.59 16.4,0 30.73,-4.77 43.12,-14.33 11.1,-10.33 16.66,-21.56 16.66,-33.7 0,-11.88 -4.01,-23.88 -11.75,-35.89 -5.04,-5.81 -12.4,-13.04 -21.95,-21.82 -9.55,-8.65 -21.56,-19.11 -35.9,-31.11 -27.5,-22.98 -50.35,-43.25 -68.29,-60.81 -18.08,-17.43 -31.24,-32.4 -39.51,-44.8 -17.69,-25.18 -26.47,-49.84 -26.47,-74.11 0,-36.28 13.56,-67.4 40.8,-93.34 28.28,-25.7 61.71,-38.6 100.58,-38.6 26.72,0 51.64,6.46 74.49,19.24 11.88,5.81 24.14,14.2 36.79,25.04 12.53,10.84 25.95,24.02 40.02,39.64l-74.49 64.68c-24.91,-34.99 -50.61,-52.55 -76.82,-52.55 -14.59,0 -24.92,3.1 -30.99,9.43 -8.14,6.33 -12.13,14.33 -12.13,24.28 0,7.48 2.45,15.36 7.23,23.37 4.78,5.03 13.17,12.91 25.18,23.62 11.88,10.72 27.62,24.53 47.12,41.44 22.59,18.85 39.89,33.95 51.77,44.93 7.75,7.1 13.56,12.13 17.43,15.24 35.24,33.95 52.93,73.07 52.93,117.23 0,43.25 -14.59,78.63 -43.51,105.87 -28.79,27.24 -67.14,40.8 -115.03,40.8z"/>
  <path class="fil1" d="M886.1 6110.16c47.68,0 93.67,-5.49 137.98,-16.88 43.88,-10.97 85.65,-26.58 125.32,-47.26 39.67,-20.68 76.38,-45.15 110.13,-73.84 33.76,-28.27 63.72,-60.34 89.88,-95.78l228.7 197.89c-40.09,51.06 -85.65,97.47 -136.29,139.66 -50.64,41.78 -105.49,77.64 -164.57,107.18 -59.07,29.95 -121.1,52.74 -186.5,68.78 -65.82,16.03 -133.76,24.05 -204.65,24.05 -81.43,0 -160.34,-10.55 -235.45,-31.64 -75.53,-20.68 -145.99,-50.64 -212.24,-89.46 -65.82,-38.82 -125.32,-84.81 -178.91,-138.4 -53.59,-53.58 -99.58,-113.5 -138.4,-179.33 -38.82,-65.83 -68.78,-136.3 -89.46,-211.82 -21.1,-75.53 -31.64,-154.02 -31.64,-235.45 0,-81.43 10.55,-159.92 31.64,-235.45 20.68,-75.53 50.64,-145.99 89.46,-211.82 38.82,-65.83 84.81,-125.75 138.4,-179.33 53.58,-53.59 113.08,-99.58 178.91,-138.4 66.25,-38.82 136.72,-68.78 212.24,-89.45 75.11,-21.1 154.02,-31.65 235.45,-31.65 70.89,0 138.83,8.02 204.65,24.05 65.4,16.04 127.43,38.82 186.5,68.78 59.07,29.54 113.93,64.98 164.57,106.76 50.64,41.35 96.2,87.77 136.29,138.83l-228.7 199.16c-26.16,-35.45 -56.12,-67.51 -89.88,-96.63 -33.75,-28.7 -70.46,-53.17 -110.13,-73.42 -39.66,-20.26 -81.43,-35.87 -125.32,-46.84 -44.31,-11.39 -90.3,-16.88 -137.98,-16.88 -80.17,0 -155.28,15.19 -226.17,45.57 -70.89,30.8 -132.92,72.16 -185.66,124.9 -52.75,52.74 -94.1,114.35 -124.9,184.82 -30.38,70.46 -45.57,146.41 -45.57,227.01 0,79.75 15.19,155.28 45.57,226.17 30.8,70.89 72.16,132.92 124.9,185.66 52.74,52.75 114.77,94.1 185.66,124.9 70.89,30.38 146,45.57 226.17,45.57zm1797.94 -1468.41l8.44 24.48 -173 445.58 -239.67 608.45 478.5 0 -115.19 -288.19 173 -446 552.76 1426.63 -356.12 0 -130.81 -363.3 -725.76 0 -148.53 363.3 -346 0 683.57 -1770.95 338.83 0zm2107.66 1773.06l-362.04 0 -322.37 -605.93 -196.63 0 0 605.93 -339.25 0 0 -1773.06 649.81 0c157.81,0 292.42,55.7 403.81,167.1 110.98,110.98 166.68,246 166.68,404.23l0 17.3c0,239.67 -115.62,416.47 -346.85,530.39l346.85 654.03zm-603.4 -935.05c67.09,0 125.74,-25.74 175.11,-76.8 49.37,-49.37 73.84,-110.13 73.84,-181.86 0,-70.05 -24.47,-128.7 -73.84,-175.96 -48.52,-47.68 -107.18,-71.73 -175.11,-71.73l-277.64 0 0 506.35 277.64 0zm1276.41 605.08c398.33,0 601.29,-185.66 608.89,-556.98 -7.6,-371.32 -210.56,-556.98 -608.89,-556.98l-175.95 0 0 556.98 0 556.98 175.95 0zm832.94 -1030.41c37.13,65.4 64.98,137.14 83.12,216.47 18.15,78.91 27.85,164.56 29.54,256.97 -1.69,92.41 -11.39,178.06 -29.54,256.97 -18.14,79.33 -45.99,151.06 -83.12,216.47 -84.81,146.42 -189.04,251.06 -312.67,313.93 -124.48,65.82 -314.35,98.74 -569.22,98.74l-463.73 0 0 -886.1 0 -886.1 463.73 0c254.86,0 444.74,32.91 569.22,98.74 123.63,62.87 227.86,167.51 312.67,313.93zm1392.87 -412.67l0 329.13 -734.2 0 0 394.95 734.2 0 0 321.53 -734.2 0 0 397.48 734.2 0 0 329.13 -1063.33 0 0 -1772.21 1063.33 0zm584.83 0l0 1450.68 654.03 0 0 321.53 -983.15 0 0 -1772.21 329.13 0zm843.91 0l329.13 0 0 1772.63 -329.13 0 0 -1772.63zm1853.65 0l-609.31 889.9 609.31 882.72 -402.97 0 -545.17 -791.16 0 791.16 -336.72 0 0 -1772.63 336.72 0 0 792.43 545.17 -792.43 402.97 0z"/>
  <path class="fil2" d="M6742.9 2181.61c0,693.9 -562.52,1256.42 -1256.43,1256.42 -693.9,0 -1256.42,-562.52 -1256.42,-1256.42 0,-693.91 562.52,-1256.43 1256.42,-1256.43 693.91,0 1256.43,562.52 1256.43,1256.43zm-1266.89 -933.55c-222.66,0 -403.16,180.5 -403.16,403.16 0,193.05 135.7,354.38 316.91,393.88l-261.13 1064.76c227.88,0 455.76,0 683.64,0l-260.6 -1062.61c86.29,-16.39 164.1,-60.58 222.45,-124.63 233.61,-256.4 53.09,-674.57 -298.11,-674.57z"/>
  <path class="fil2" d="M6594.45 1251.89c211.17,251.4 338.36,575.71 338.36,929.72 0,308.68 -96.7,594.78 -261.46,829.66l602.34 421.77c248.52,-354.27 394.39,-785.81 394.39,-1251.42 0,-533.97 -191.84,-1023.14 -510.36,-1402.34l-563.26 472.63z"/>
  <path class="fil3" d="M6557.9 3153.18c-264.61,291.63 -646.63,474.76 -1071.43,474.76 -798.79,0 -1446.34,-647.55 -1446.34,-1446.34 0,-798.79 647.55,-1446.34 1446.34,-1446.34 379.25,0 724.4,145.97 982.35,384.78l566.21 -475.11c-395.25,-398.3 -943.1,-644.94 -1548.57,-644.94 -1204.86,0 -2181.6,976.74 -2181.6,2181.61 0,1204.86 976.74,2181.6 2181.6,2181.6 674.08,0 1276.75,-305.71 1676.93,-786.05l-605.49 -423.97z"/>
  <path class="fil2" d="M1388.94 5528.28c0,279.66 -226.71,506.36 -506.36,506.36 -279.66,0 -506.36,-226.71 -506.36,-506.36 0,-279.66 226.71,-506.36 506.36,-506.36 279.66,0 506.36,226.71 506.36,506.36zm-510.58 -376.24c-89.74,0 -162.48,72.74 -162.48,162.48 0,77.8 54.69,142.83 127.72,158.74l-105.24 429.12c91.84,0 183.68,0 275.52,0l-105.03 -428.25c34.77,-6.61 66.13,-24.42 89.65,-50.23 94.15,-103.34 21.4,-271.86 -120.14,-271.86z"/>
 </g>
</svg>
